<mxfile host="65bd71144e">
    <diagram id="DFY2VXXpAidneHtsbUX9" name="Page-1">
        <mxGraphModel dx="1028" dy="630" grid="1" gridSize="10" guides="1" tooltips="1" connect="1" arrows="1" fold="1" page="1" pageScale="1" pageWidth="850" pageHeight="1100" math="0" shadow="0">
            <root>
                <mxCell id="0"/>
                <mxCell id="1" parent="0"/>
                <mxCell id="2" value="&lt;br&gt;&lt;b&gt;Person&lt;/b&gt;&lt;br&gt;" style="swimlane;fontStyle=0;align=center;verticalAlign=top;childLayout=stackLayout;horizontal=1;startSize=55;horizontalStack=0;resizeParent=1;resizeParentMax=0;resizeLast=0;collapsible=0;marginBottom=0;html=1;" parent="1" vertex="1">
                    <mxGeometry x="210" y="49" width="220" height="283" as="geometry"/>
                </mxCell>
                <mxCell id="4" value="- name: String" style="text;html=1;strokeColor=none;fillColor=none;align=left;verticalAlign=middle;spacingLeft=4;spacingRight=4;overflow=hidden;rotatable=0;points=[[0,0.5],[1,0.5]];portConstraint=eastwest;" parent="2" vertex="1">
                    <mxGeometry y="55" width="220" height="20" as="geometry"/>
                </mxCell>
                <mxCell id="10" value="- address: String" style="text;html=1;strokeColor=none;fillColor=none;align=left;verticalAlign=middle;spacingLeft=4;spacingRight=4;overflow=hidden;rotatable=0;points=[[0,0.5],[1,0.5]];portConstraint=eastwest;" parent="2" vertex="1">
                    <mxGeometry y="75" width="220" height="20" as="geometry"/>
                </mxCell>
                <mxCell id="62" value="- dob: Date" style="text;html=1;strokeColor=none;fillColor=none;align=left;verticalAlign=middle;spacingLeft=4;spacingRight=4;overflow=hidden;rotatable=0;points=[[0,0.5],[1,0.5]];portConstraint=eastwest;" vertex="1" parent="2">
                    <mxGeometry y="95" width="220" height="20" as="geometry"/>
                </mxCell>
                <mxCell id="7" value="" style="line;strokeWidth=1;fillColor=none;align=left;verticalAlign=middle;spacingTop=-1;spacingLeft=3;spacingRight=3;rotatable=0;labelPosition=right;points=[];portConstraint=eastwest;" parent="2" vertex="1">
                    <mxGeometry y="115" width="220" height="8" as="geometry"/>
                </mxCell>
                <mxCell id="9" value="+ Person( String, String, Date)" style="text;html=1;strokeColor=none;fillColor=none;align=left;verticalAlign=middle;spacingLeft=4;spacingRight=4;overflow=hidden;rotatable=0;points=[[0,0.5],[1,0.5]];portConstraint=eastwest;" parent="2" vertex="1">
                    <mxGeometry y="123" width="220" height="20" as="geometry"/>
                </mxCell>
                <mxCell id="11" value="+ Person( Person )" style="text;html=1;strokeColor=none;fillColor=none;align=left;verticalAlign=middle;spacingLeft=4;spacingRight=4;overflow=hidden;rotatable=0;points=[[0,0.5],[1,0.5]];portConstraint=eastwest;" parent="2" vertex="1">
                    <mxGeometry y="143" width="220" height="20" as="geometry"/>
                </mxCell>
                <mxCell id="13" value="+ getName( ): String" style="text;html=1;strokeColor=none;fillColor=none;align=left;verticalAlign=middle;spacingLeft=4;spacingRight=4;overflow=hidden;rotatable=0;points=[[0,0.5],[1,0.5]];portConstraint=eastwest;" parent="2" vertex="1">
                    <mxGeometry y="163" width="220" height="20" as="geometry"/>
                </mxCell>
                <mxCell id="14" value="+ getAddress( ): String" style="text;html=1;strokeColor=none;fillColor=none;align=left;verticalAlign=middle;spacingLeft=4;spacingRight=4;overflow=hidden;rotatable=0;points=[[0,0.5],[1,0.5]];portConstraint=eastwest;" parent="2" vertex="1">
                    <mxGeometry y="183" width="220" height="20" as="geometry"/>
                </mxCell>
                <mxCell id="15" value="+ setAddress( String ): void" style="text;html=1;strokeColor=none;fillColor=none;align=left;verticalAlign=middle;spacingLeft=4;spacingRight=4;overflow=hidden;rotatable=0;points=[[0,0.5],[1,0.5]];portConstraint=eastwest;" parent="2" vertex="1">
                    <mxGeometry y="203" width="220" height="20" as="geometry"/>
                </mxCell>
                <mxCell id="63" value="+ setDob( ): Date" style="text;html=1;strokeColor=none;fillColor=none;align=left;verticalAlign=middle;spacingLeft=4;spacingRight=4;overflow=hidden;rotatable=0;points=[[0,0.5],[1,0.5]];portConstraint=eastwest;" vertex="1" parent="2">
                    <mxGeometry y="223" width="220" height="20" as="geometry"/>
                </mxCell>
                <mxCell id="16" value="+ equals( Object ): boolean" style="text;html=1;strokeColor=none;fillColor=none;align=left;verticalAlign=middle;spacingLeft=4;spacingRight=4;overflow=hidden;rotatable=0;points=[[0,0.5],[1,0.5]];portConstraint=eastwest;" parent="2" vertex="1">
                    <mxGeometry y="243" width="220" height="20" as="geometry"/>
                </mxCell>
                <mxCell id="17" value="+ toString( ): String" style="text;html=1;strokeColor=none;fillColor=none;align=left;verticalAlign=middle;spacingLeft=4;spacingRight=4;overflow=hidden;rotatable=0;points=[[0,0.5],[1,0.5]];portConstraint=eastwest;" parent="2" vertex="1">
                    <mxGeometry y="263" width="220" height="20" as="geometry"/>
                </mxCell>
                <mxCell id="18" value="&lt;br&gt;&lt;b&gt;Student&lt;/b&gt;" style="swimlane;fontStyle=0;align=center;verticalAlign=top;childLayout=stackLayout;horizontal=1;startSize=55;horizontalStack=0;resizeParent=1;resizeParentMax=0;resizeLast=0;collapsible=0;marginBottom=0;html=1;" parent="1" vertex="1">
                    <mxGeometry x="50" y="440" width="245" height="343" as="geometry"/>
                </mxCell>
                <mxCell id="19" value="- program: String" style="text;html=1;strokeColor=none;fillColor=none;align=left;verticalAlign=middle;spacingLeft=4;spacingRight=4;overflow=hidden;rotatable=0;points=[[0,0.5],[1,0.5]];portConstraint=eastwest;" parent="18" vertex="1">
                    <mxGeometry y="55" width="245" height="20" as="geometry"/>
                </mxCell>
                <mxCell id="20" value="- year: int" style="text;html=1;strokeColor=none;fillColor=none;align=left;verticalAlign=middle;spacingLeft=4;spacingRight=4;overflow=hidden;rotatable=0;points=[[0,0.5],[1,0.5]];portConstraint=eastwest;" parent="18" vertex="1">
                    <mxGeometry y="75" width="245" height="20" as="geometry"/>
                </mxCell>
                <mxCell id="43" value="- fee: double" style="text;html=1;strokeColor=none;fillColor=none;align=left;verticalAlign=middle;spacingLeft=4;spacingRight=4;overflow=hidden;rotatable=0;points=[[0,0.5],[1,0.5]];portConstraint=eastwest;" parent="18" vertex="1">
                    <mxGeometry y="95" width="245" height="20" as="geometry"/>
                </mxCell>
                <mxCell id="21" value="" style="line;strokeWidth=1;fillColor=none;align=left;verticalAlign=middle;spacingTop=-1;spacingLeft=3;spacingRight=3;rotatable=0;labelPosition=right;points=[];portConstraint=eastwest;" parent="18" vertex="1">
                    <mxGeometry y="115" width="245" height="8" as="geometry"/>
                </mxCell>
                <mxCell id="22" value="+ Student( String, String, String, int, double)" style="text;html=1;strokeColor=none;fillColor=none;align=left;verticalAlign=middle;spacingLeft=4;spacingRight=4;overflow=hidden;rotatable=0;points=[[0,0.5],[1,0.5]];portConstraint=eastwest;" parent="18" vertex="1">
                    <mxGeometry y="123" width="245" height="20" as="geometry"/>
                </mxCell>
                <mxCell id="23" value="+ Student( Person, String, int, double )" style="text;html=1;strokeColor=none;fillColor=none;align=left;verticalAlign=middle;spacingLeft=4;spacingRight=4;overflow=hidden;rotatable=0;points=[[0,0.5],[1,0.5]];portConstraint=eastwest;" parent="18" vertex="1">
                    <mxGeometry y="143" width="245" height="20" as="geometry"/>
                </mxCell>
                <mxCell id="44" value="+ Student( Student )" style="text;html=1;strokeColor=none;fillColor=none;align=left;verticalAlign=middle;spacingLeft=4;spacingRight=4;overflow=hidden;rotatable=0;points=[[0,0.5],[1,0.5]];portConstraint=eastwest;" parent="18" vertex="1">
                    <mxGeometry y="163" width="245" height="20" as="geometry"/>
                </mxCell>
                <mxCell id="24" value="+ getProgram( ): String" style="text;html=1;strokeColor=none;fillColor=none;align=left;verticalAlign=middle;spacingLeft=4;spacingRight=4;overflow=hidden;rotatable=0;points=[[0,0.5],[1,0.5]];portConstraint=eastwest;" parent="18" vertex="1">
                    <mxGeometry y="183" width="245" height="20" as="geometry"/>
                </mxCell>
                <mxCell id="26" value="+ setProgram( String ): void" style="text;html=1;strokeColor=none;fillColor=none;align=left;verticalAlign=middle;spacingLeft=4;spacingRight=4;overflow=hidden;rotatable=0;points=[[0,0.5],[1,0.5]];portConstraint=eastwest;" parent="18" vertex="1">
                    <mxGeometry y="203" width="245" height="20" as="geometry"/>
                </mxCell>
                <mxCell id="25" value="+ getYear( ): int" style="text;html=1;strokeColor=none;fillColor=none;align=left;verticalAlign=middle;spacingLeft=4;spacingRight=4;overflow=hidden;rotatable=0;points=[[0,0.5],[1,0.5]];portConstraint=eastwest;" parent="18" vertex="1">
                    <mxGeometry y="223" width="245" height="20" as="geometry"/>
                </mxCell>
                <mxCell id="45" value="+ setYear( int ): void" style="text;html=1;strokeColor=none;fillColor=none;align=left;verticalAlign=middle;spacingLeft=4;spacingRight=4;overflow=hidden;rotatable=0;points=[[0,0.5],[1,0.5]];portConstraint=eastwest;" parent="18" vertex="1">
                    <mxGeometry y="243" width="245" height="20" as="geometry"/>
                </mxCell>
                <mxCell id="46" value="+ setFee( double ): void" style="text;html=1;strokeColor=none;fillColor=none;align=left;verticalAlign=middle;spacingLeft=4;spacingRight=4;overflow=hidden;rotatable=0;points=[[0,0.5],[1,0.5]];portConstraint=eastwest;" parent="18" vertex="1">
                    <mxGeometry y="263" width="245" height="20" as="geometry"/>
                </mxCell>
                <mxCell id="47" value="+ getFee( ): double" style="text;html=1;strokeColor=none;fillColor=none;align=left;verticalAlign=middle;spacingLeft=4;spacingRight=4;overflow=hidden;rotatable=0;points=[[0,0.5],[1,0.5]];portConstraint=eastwest;" parent="18" vertex="1">
                    <mxGeometry y="283" width="245" height="20" as="geometry"/>
                </mxCell>
                <mxCell id="27" value="+ equals( Object ): boolean" style="text;html=1;strokeColor=none;fillColor=none;align=left;verticalAlign=middle;spacingLeft=4;spacingRight=4;overflow=hidden;rotatable=0;points=[[0,0.5],[1,0.5]];portConstraint=eastwest;" parent="18" vertex="1">
                    <mxGeometry y="303" width="245" height="20" as="geometry"/>
                </mxCell>
                <mxCell id="28" value="+ toString( ): String" style="text;html=1;strokeColor=none;fillColor=none;align=left;verticalAlign=middle;spacingLeft=4;spacingRight=4;overflow=hidden;rotatable=0;points=[[0,0.5],[1,0.5]];portConstraint=eastwest;" parent="18" vertex="1">
                    <mxGeometry y="323" width="245" height="20" as="geometry"/>
                </mxCell>
                <mxCell id="29" value="&lt;br&gt;&lt;b&gt;Staff&lt;/b&gt;" style="swimlane;fontStyle=0;align=center;verticalAlign=top;childLayout=stackLayout;horizontal=1;startSize=55;horizontalStack=0;resizeParent=1;resizeParentMax=0;resizeLast=0;collapsible=0;marginBottom=0;html=1;" parent="1" vertex="1">
                    <mxGeometry x="391" y="440" width="240" height="323" as="geometry"/>
                </mxCell>
                <mxCell id="30" value="- school: String" style="text;html=1;strokeColor=none;fillColor=none;align=left;verticalAlign=middle;spacingLeft=4;spacingRight=4;overflow=hidden;rotatable=0;points=[[0,0.5],[1,0.5]];portConstraint=eastwest;" parent="29" vertex="1">
                    <mxGeometry y="55" width="240" height="20" as="geometry"/>
                </mxCell>
                <mxCell id="31" value="- pay: double" style="text;html=1;strokeColor=none;fillColor=none;align=left;verticalAlign=middle;spacingLeft=4;spacingRight=4;overflow=hidden;rotatable=0;points=[[0,0.5],[1,0.5]];portConstraint=eastwest;" parent="29" vertex="1">
                    <mxGeometry y="75" width="240" height="20" as="geometry"/>
                </mxCell>
                <mxCell id="48" value="- hired: Date" style="text;html=1;strokeColor=none;fillColor=none;align=left;verticalAlign=middle;spacingLeft=4;spacingRight=4;overflow=hidden;rotatable=0;points=[[0,0.5],[1,0.5]];portConstraint=eastwest;" parent="29" vertex="1">
                    <mxGeometry y="95" width="240" height="20" as="geometry"/>
                </mxCell>
                <mxCell id="32" value="" style="line;strokeWidth=1;fillColor=none;align=left;verticalAlign=middle;spacingTop=-1;spacingLeft=3;spacingRight=3;rotatable=0;labelPosition=right;points=[];portConstraint=eastwest;" parent="29" vertex="1">
                    <mxGeometry y="115" width="240" height="8" as="geometry"/>
                </mxCell>
                <mxCell id="33" value="+ Staff( String, String, String, double, Date)" style="text;html=1;strokeColor=none;fillColor=none;align=left;verticalAlign=middle;spacingLeft=4;spacingRight=4;overflow=hidden;rotatable=0;points=[[0,0.5],[1,0.5]];portConstraint=eastwest;" parent="29" vertex="1">
                    <mxGeometry y="123" width="240" height="20" as="geometry"/>
                </mxCell>
                <mxCell id="34" value="+ Staff( Person, String, double, Date)" style="text;html=1;strokeColor=none;fillColor=none;align=left;verticalAlign=middle;spacingLeft=4;spacingRight=4;overflow=hidden;rotatable=0;points=[[0,0.5],[1,0.5]];portConstraint=eastwest;" parent="29" vertex="1">
                    <mxGeometry y="143" width="240" height="20" as="geometry"/>
                </mxCell>
                <mxCell id="35" value="+ Staff( Staff )" style="text;html=1;strokeColor=none;fillColor=none;align=left;verticalAlign=middle;spacingLeft=4;spacingRight=4;overflow=hidden;rotatable=0;points=[[0,0.5],[1,0.5]];portConstraint=eastwest;" parent="29" vertex="1">
                    <mxGeometry y="163" width="240" height="20" as="geometry"/>
                </mxCell>
                <mxCell id="36" value="+ getSchool( ): String" style="text;html=1;strokeColor=none;fillColor=none;align=left;verticalAlign=middle;spacingLeft=4;spacingRight=4;overflow=hidden;rotatable=0;points=[[0,0.5],[1,0.5]];portConstraint=eastwest;" parent="29" vertex="1">
                    <mxGeometry y="183" width="240" height="20" as="geometry"/>
                </mxCell>
                <mxCell id="37" value="+ setSchool( String ): void" style="text;html=1;strokeColor=none;fillColor=none;align=left;verticalAlign=middle;spacingLeft=4;spacingRight=4;overflow=hidden;rotatable=0;points=[[0,0.5],[1,0.5]];portConstraint=eastwest;" parent="29" vertex="1">
                    <mxGeometry y="203" width="240" height="20" as="geometry"/>
                </mxCell>
                <mxCell id="59" value="+ setPay( double ): void" style="text;html=1;strokeColor=none;fillColor=none;align=left;verticalAlign=middle;spacingLeft=4;spacingRight=4;overflow=hidden;rotatable=0;points=[[0,0.5],[1,0.5]];portConstraint=eastwest;" parent="29" vertex="1">
                    <mxGeometry y="223" width="240" height="20" as="geometry"/>
                </mxCell>
                <mxCell id="60" value="+ getPay( ): double" style="text;html=1;strokeColor=none;fillColor=none;align=left;verticalAlign=middle;spacingLeft=4;spacingRight=4;overflow=hidden;rotatable=0;points=[[0,0.5],[1,0.5]];portConstraint=eastwest;" parent="29" vertex="1">
                    <mxGeometry y="243" width="240" height="20" as="geometry"/>
                </mxCell>
                <mxCell id="61" value="+ getDateHired( ): Date" style="text;html=1;strokeColor=none;fillColor=none;align=left;verticalAlign=middle;spacingLeft=4;spacingRight=4;overflow=hidden;rotatable=0;points=[[0,0.5],[1,0.5]];portConstraint=eastwest;" parent="29" vertex="1">
                    <mxGeometry y="263" width="240" height="20" as="geometry"/>
                </mxCell>
                <mxCell id="38" value="+ equals( Object ): boolean" style="text;html=1;strokeColor=none;fillColor=none;align=left;verticalAlign=middle;spacingLeft=4;spacingRight=4;overflow=hidden;rotatable=0;points=[[0,0.5],[1,0.5]];portConstraint=eastwest;" parent="29" vertex="1">
                    <mxGeometry y="283" width="240" height="20" as="geometry"/>
                </mxCell>
                <mxCell id="39" value="+ toString( ): String" style="text;html=1;strokeColor=none;fillColor=none;align=left;verticalAlign=middle;spacingLeft=4;spacingRight=4;overflow=hidden;rotatable=0;points=[[0,0.5],[1,0.5]];portConstraint=eastwest;" parent="29" vertex="1">
                    <mxGeometry y="303" width="240" height="20" as="geometry"/>
                </mxCell>
                <mxCell id="49" value="Date" style="shape=process2;fixedSize=1;size=5;fontStyle=1;" parent="1" vertex="1">
                    <mxGeometry x="670" y="435" width="140" height="40" as="geometry"/>
                </mxCell>
                <mxCell id="50" value="" style="endArrow=none;startArrow=diamondThin;endFill=0;startFill=1;html=1;verticalAlign=bottom;labelBackgroundColor=none;strokeWidth=1;startSize=8;endSize=8;entryX=0.5;entryY=1;entryDx=0;entryDy=0;exitX=1;exitY=0.5;exitDx=0;exitDy=0;" parent="1" source="48" target="49" edge="1">
                    <mxGeometry width="160" relative="1" as="geometry">
                        <mxPoint x="380" y="490" as="sourcePoint"/>
                        <mxPoint x="540" y="490" as="targetPoint"/>
                        <Array as="points">
                            <mxPoint x="740" y="545"/>
                        </Array>
                    </mxGeometry>
                </mxCell>
                <mxCell id="51" value="&amp;nbsp;uses&amp;nbsp;" style="edgeLabel;html=1;align=center;verticalAlign=middle;resizable=0;points=[];" parent="50" vertex="1" connectable="0">
                    <mxGeometry x="-0.0314" y="-2" relative="1" as="geometry">
                        <mxPoint y="-1" as="offset"/>
                    </mxGeometry>
                </mxCell>
                <mxCell id="52" value="Extends" style="html=1;verticalAlign=bottom;labelBackgroundColor=none;endArrow=block;endFill=1;endSize=6;align=left;entryX=0.506;entryY=1.127;entryDx=0;entryDy=0;entryPerimeter=0;" parent="1" target="17" edge="1">
                    <mxGeometry x="-1" y="29" relative="1" as="geometry">
                        <mxPoint x="321" y="370" as="sourcePoint"/>
                        <mxPoint x="330" y="490" as="targetPoint"/>
                        <mxPoint x="8" y="20" as="offset"/>
                    </mxGeometry>
                </mxCell>
                <mxCell id="56" value="" style="endArrow=none;html=1;exitX=0.5;exitY=0;exitDx=0;exitDy=0;" parent="1" source="18" edge="1">
                    <mxGeometry width="50" height="50" relative="1" as="geometry">
                        <mxPoint x="230" y="510" as="sourcePoint"/>
                        <mxPoint x="173" y="370" as="targetPoint"/>
                    </mxGeometry>
                </mxCell>
                <mxCell id="57" value="" style="endArrow=none;html=1;exitX=0.5;exitY=0;exitDx=0;exitDy=0;" parent="1" source="29" edge="1">
                    <mxGeometry width="50" height="50" relative="1" as="geometry">
                        <mxPoint x="490" y="430" as="sourcePoint"/>
                        <mxPoint x="510" y="370" as="targetPoint"/>
                    </mxGeometry>
                </mxCell>
                <mxCell id="58" value="" style="endArrow=none;html=1;" parent="1" edge="1">
                    <mxGeometry width="50" height="50" relative="1" as="geometry">
                        <mxPoint x="173" y="370" as="sourcePoint"/>
                        <mxPoint x="510" y="370" as="targetPoint"/>
                    </mxGeometry>
                </mxCell>
                <mxCell id="64" value="Date" style="shape=process2;fixedSize=1;size=5;fontStyle=1;" vertex="1" parent="1">
                    <mxGeometry x="531" y="134" width="140" height="40" as="geometry"/>
                </mxCell>
                <mxCell id="65" value="" style="endArrow=none;startArrow=diamondThin;endFill=0;startFill=1;html=1;verticalAlign=bottom;labelBackgroundColor=none;strokeWidth=1;startSize=8;endSize=8;entryX=0;entryY=0.5;entryDx=0;entryDy=0;exitX=1;exitY=0.5;exitDx=0;exitDy=0;" edge="1" parent="1" target="64" source="62">
                    <mxGeometry width="160" relative="1" as="geometry">
                        <mxPoint x="572" y="224" as="sourcePoint"/>
                        <mxPoint x="481" y="169" as="targetPoint"/>
                        <Array as="points"/>
                    </mxGeometry>
                </mxCell>
                <mxCell id="66" value="&amp;nbsp;uses&amp;nbsp;" style="edgeLabel;html=1;align=center;verticalAlign=middle;resizable=0;points=[];" vertex="1" connectable="0" parent="65">
                    <mxGeometry x="-0.0314" y="-2" relative="1" as="geometry">
                        <mxPoint y="-1" as="offset"/>
                    </mxGeometry>
                </mxCell>
            </root>
        </mxGraphModel>
    </diagram>
</mxfile>